<?xml version="1.0" encoding="utf-8"?>
<!-- Generator: Adobe Illustrator 19.0.0, SVG Export Plug-In . SVG Version: 6.00 Build 0)  -->
<svg version="1.1" id="Layer_1" xmlns="http://www.w3.org/2000/svg" xmlns:xlink="http://www.w3.org/1999/xlink" x="0px" y="0px"
	 viewBox="0 0 239.5 168" style="enable-background:new 0 0 239.5 168;" xml:space="preserve">
<style type="text/css">
	.st0{fill:#EF4136;}
	.st1{fill:none;stroke:#808285;stroke-miterlimit:10;stroke-dasharray:6;}
	.st2{fill:none;stroke:#808285;stroke-miterlimit:10;}
	.st3{fill:none;stroke:#808285;stroke-miterlimit:10;stroke-dasharray:6.0797739,6.0797739;}
	.st4{fill:#010101;}
	.st5{fill:#808285;}
	.st6{fill:#010101;stroke:#010101;stroke-width:0.3444593;stroke-miterlimit:10;}
</style>
<g>
	<g>
		<g>
			<polygon class="st0" points="155.9644165,64.8465271 156.5740662,66.7580872 164.7983856,61.4823456 155.0368652,61.9381866 
				155.6465759,63.8499146 75.6571503,89.3607178 75.9750061,90.3573303 			"/>
		</g>
	</g>
</g>
<line class="st1" x1="164.7977142" y1="61.4802666" x2="164.7977142" y2="135.8305817"/>
<g>
	<g>
		<line class="st2" x1="164.4178009" y1="135.8305817" x2="161.4178009" y2="135.8305817"/>
		<line class="st3" x1="155.338028" y1="135.8305817" x2="36.7824402" y2="135.8305817"/>
		<line class="st2" x1="33.7425537" y1="135.8305817" x2="30.7425537" y2="135.8305817"/>
	</g>
</g>
<line class="st1" x1="164.7977142" y1="135.8305817" x2="212.7931213" y2="90.652092"/>
<g>
	<g>
		<path class="st4" d="M158.0556641,47.4257813h3.0751953c0.8056641,0,1.4082031,0.1679688,1.8076172,0.5039063
			s0.5996094,0.7451172,0.5996094,1.2280273c0,0.3823242-0.1269531,0.753418-0.3808594,1.1137695
			c-0.2529297,0.3598633-0.6289063,0.6523438-1.1279297,0.8769531s-1.0390625,0.3369141-1.6181641,0.3369141
			c-0.3613281,0-0.8203125-0.0634766-1.3769531-0.1894531l-0.6210938,2.0600586
			c-0.1464844,0.4902344-0.2197266,0.8129883-0.2197266,0.9692383c0,0.1186523,0.0527344,0.2167969,0.15625,0.2949219
			s0.3505859,0.1279297,0.7421875,0.1503906l-0.0576172,0.2060547h-3.1035156l0.0634766-0.2060547
			c0.4072266,0,0.6904297-0.0678711,0.8496094-0.203125c0.1591797-0.1357422,0.3310547-0.5097656,0.5146484-1.1220703
			l1.2900391-4.2988281c0.1533203-0.5161133,0.2304688-0.8613281,0.2304688-1.0356445
			c0-0.1298828-0.0546875-0.237793-0.1640625-0.3232422s-0.3505859-0.137207-0.7226563-0.1557617L158.0556641,47.4257813z
			 M159.1328125,50.9448242c0.4335938,0.1079102,0.7832031,0.1616211,1.0478516,0.1616211
			c0.4179688,0,0.7988281-0.0834961,1.1425781-0.2504883s0.6123047-0.4174805,0.8066406-0.7519531
			c0.1933594-0.3339844,0.2910156-0.6811523,0.2910156-1.0410156c0-0.375-0.1191406-0.671875-0.3574219-0.8911133
			c-0.2382813-0.21875-0.5986328-0.3286133-1.0830078-0.3286133c-0.2607422,0-0.5771484,0.0317383-0.9501953,0.0947266
			L159.1328125,50.9448242z"/>
	</g>
</g>
<line class="st1" x1="76.4264069" y1="89.6645508" x2="164.7977142" y2="135.8305817"/>
<path class="st2" d="M93.1445465,82.6332397C89.1339798,69.623558,82.3603058,69.8879013,77.101265,69.8879013"/>
<polygon class="st5" points="88.1951218,95.5673523 87.8415222,99.4566727 84.7221832,97.3284073 "/>
<path class="st2" d="M87.1134033,96.9836426c-3.7917175,6.0660706-12.2787552,8.7075882-21.2867432,4.2633057"/>
<g>
	<g>
		<path class="st4" d="M89.9438477,63.2006836c0.4980469-1.5087891,1.1850586-2.671875,2.0620117-3.487793
			c0.6606445-0.6123047,1.3120117-0.9189453,1.9536133-0.9189453c0.6220703,0,1.0561523,0.2949219,1.3012695,0.8847656
			c0.3427734,0.8232422,0.2802734,1.9433594-0.1875,3.3603516c-0.4448242,1.3481445-1.0981445,2.4140625-1.9594727,3.1948242
			c-0.6708984,0.6054688-1.3242188,0.9077148-1.9619141,0.9077148c-0.3447266,0-0.6318359-0.0844727-0.8613281-0.253418
			c-0.2285156-0.1674805-0.4013672-0.4106445-0.515625-0.7285156c-0.1152344-0.3183594-0.1723633-0.6557617-0.1728516-1.0117188
			C89.6040039,64.534668,89.7177734,63.8857422,89.9438477,63.2006836z M91.0405273,63.171875
			c-0.2104492,0.6816406-0.3613281,1.2944336-0.4541016,1.8388672c-0.0717773,0.4135742-0.078125,0.7734375-0.0205078,1.0791016
			c0.0341797,0.1845703,0.1210938,0.340332,0.2607422,0.4682617c0.1396484,0.1289063,0.3144531,0.1928711,0.5224609,0.1928711
			c0.2431641,0,0.5112305-0.1147461,0.8046875-0.3447266c0.2949219-0.2299805,0.5820313-0.5991211,0.8613281-1.1088867
			c0.2807617-0.5092773,0.5820313-1.2177734,0.9042969-2.1254883H91.0405273z M94.0561523,62.7924805
			c0.3261719-0.9995117,0.496582-1.8017578,0.5107422-2.4072266c0.0087891-0.4638672-0.0732422-0.7949219-0.2470703-0.9941406
			c-0.1264648-0.1455078-0.3037109-0.2182617-0.53125-0.2182617c-0.2578125,0-0.5283203,0.1010742-0.8115234,0.3041992
			c-0.2836914,0.203125-0.5595703,0.5424805-0.828125,1.0175781c-0.269043,0.4746094-0.597168,1.2407227-0.9833984,2.2978516
			H94.0561523z"/>
	</g>
</g>
<g>
	<g>
		<path class="st4" d="M76.6206055,109.4042969c0.7265625,0.0810547,1.2036133,0.3701172,1.4296875,0.8681641
			c0.2255859,0.4980469,0.2197266,1.0927734-0.0180664,1.7851563c-0.1088867,0.3183594-0.262207,0.625-0.4584961,0.9208984
			c-0.1962891,0.296875-0.4101563,0.5576172-0.640625,0.7802734c-0.2299805,0.2226563-0.4648438,0.4072266-0.7041016,0.5527344
			s-0.4868164,0.2568359-0.7412109,0.3349609c-0.1767578,0.0507813-0.4140625,0.09375-0.7094727,0.1269531L73.9931641,117.0625
			h-0.6376953l0.7851563-2.2890625c-0.5532227-0.0556641-0.9560547-0.2304688-1.2075195-0.5253906
			c-0.4433594-0.5126953-0.5068359-1.2255859-0.1933594-2.140625c0.1240234-0.3613281,0.2822266-0.6855469,0.4750977-0.9726563
			c0.1938477-0.2880859,0.4091797-0.5400391,0.6450195-0.7578125c0.2353516-0.2177734,0.4726563-0.3955078,0.7119141-0.5332031
			c0.2392578-0.1386719,0.4790039-0.2431641,0.71875-0.3125c0.1728516-0.0517578,0.4042969-0.09375,0.6923828-0.1269531
			l0.9082031-2.6494141h0.6376953L76.6206055,109.4042969z M75.8666992,109.7412109
			c-0.2700195,0.0585938-0.4892578,0.140625-0.6572266,0.2431641c-0.2739258,0.1660156-0.5283203,0.4033203-0.7646484,0.7109375
			s-0.4453125,0.7246094-0.6259766,1.2529297c-0.1992188,0.5810547-0.2871094,1.0585938-0.2597656,1.4287109
			c0.0263672,0.3701172,0.1210938,0.6494141,0.2841797,0.8378906c0.0742188,0.0917969,0.2109375,0.1699219,0.4091797,0.2314453
			L75.8666992,109.7412109z M74.8901367,114.4462891c0.2490234-0.0507813,0.4550781-0.1240234,0.6171875-0.2207031
			c0.2958984-0.1767578,0.5615234-0.421875,0.7978516-0.7353516c0.2363281-0.3125,0.4511719-0.75,0.6430664-1.3105469
			c0.1762695-0.5126953,0.2661133-0.9472656,0.2709961-1.3027344c0.0039063-0.3554688-0.0654297-0.6289063-0.2084961-0.8212891
			c-0.0927734-0.1240234-0.2617188-0.2294922-0.5063477-0.3144531L74.8901367,114.4462891z"/>
	</g>
</g>
<g>
	<g>
		<path class="st4" d="M6.2333984,146.1279297c0.1860352,0.1904297,0.3266602,0.3798828,0.4213867,0.5703125
			c0.0683594,0.1318359,0.1801758,0.4765625,0.3354492,1.0361328l0.5009766-0.7236328
			c0.1328125-0.1757813,0.2939453-0.3427734,0.4838867-0.5019531c0.1894531-0.1591797,0.3564453-0.2675781,0.5004883-0.3261719
			c0.0913086-0.0361328,0.1918945-0.0546875,0.3017578-0.0546875c0.1630859,0,0.2929688,0.0419922,0.3896484,0.1259766
			S9.3125,146.4404297,9.3125,146.5605469c0,0.1396484-0.0288086,0.234375-0.0854492,0.2851563
			c-0.1064453,0.0917969-0.2275391,0.1376953-0.3642578,0.1376953c-0.0795898,0-0.1650391-0.0166016-0.2563477-0.0498047
			c-0.1782227-0.0585938-0.2978516-0.0878906-0.3583984-0.0878906c-0.0908203,0-0.1992188,0.0517578-0.3242188,0.1542969
			c-0.2353516,0.1894531-0.5161133,0.5576172-0.8422852,1.1015625l0.4667969,1.8867188
			c0.0717773,0.2890625,0.1328125,0.4619141,0.1821289,0.5185547c0.0488281,0.0566406,0.0986328,0.0849609,0.1479492,0.0849609
			c0.0795898,0,0.1723633-0.0419922,0.2788086-0.1259766c0.2084961-0.1679688,0.3867188-0.3876953,0.534668-0.6582031
			l0.1992188,0.0986328c-0.2387695,0.4316406-0.5424805,0.7900391-0.9106445,1.0751953
			c-0.2084961,0.1601563-0.3847656,0.2412109-0.5292969,0.2412109c-0.2124023,0-0.3808594-0.1152344-0.5063477-0.3457031
			c-0.0795898-0.1425781-0.2446289-0.7568359-0.4951172-1.8427734c-0.5917969,0.9912109-1.065918,1.6289063-1.4223633,1.9140625
			c-0.2314453,0.1826172-0.4555664,0.2744141-0.671875,0.2744141c-0.1513672,0-0.2900391-0.0537109-0.4150391-0.1591797
			c-0.0913086-0.0800781-0.1367188-0.1884766-0.1367188-0.3232422c0-0.1210938,0.0415039-0.2216797,0.125-0.3017578
			c0.0834961-0.0810547,0.1860352-0.1210938,0.3076172-0.1210938c0.1210938,0,0.25,0.0585938,0.3867188,0.1757813
			c0.0986328,0.0839844,0.1743164,0.1259766,0.2275391,0.1259766c0.0458984,0,0.1044922-0.0292969,0.1767578-0.0878906
			c0.1782227-0.1386719,0.4208984-0.4384766,0.7280273-0.8994141c0.3076172-0.4599609,0.5083008-0.7929688,0.6035156-0.9980469
			c-0.2353516-0.8886719-0.3623047-1.3583984-0.3813477-1.4091797c-0.0874023-0.2373047-0.2011719-0.40625-0.3413086-0.5048828
			c-0.140625-0.0986328-0.347168-0.1474609-0.6206055-0.1474609c-0.0874023,0-0.1875,0.0029297-0.3012695,0.0107422v-0.1972656
			L6.2333984,146.1279297z"/>
	</g>
</g>
<g>
	<g>
		<path class="st4" d="M227.8964844,98.4277344c0.1259766,0.2148438,0.2128906,0.4160156,0.2607422,0.6035156
			s0.0957031,0.5566406,0.1435547,1.1054688l0.2441406,2.7402344c0.2216797-0.2675781,0.5429688-0.6904297,0.9648438-1.2695313
			c0.203125-0.2822266,0.4541016-0.6669922,0.7539063-1.1533203c0.1806641-0.296875,0.2919922-0.5048828,0.3320313-0.6230469
			c0.0224609-0.0595703,0.0332031-0.1210938,0.0332031-0.1845703c0-0.0400391-0.0126953-0.0742188-0.0380859-0.0996094
			c-0.0263672-0.0263672-0.09375-0.0566406-0.203125-0.0917969c-0.1083984-0.0351563-0.1992188-0.1005859-0.2714844-0.1953125
			s-0.1074219-0.203125-0.1074219-0.3251953c0-0.1523438,0.0439453-0.2753906,0.1328125-0.3681641
			s0.1992188-0.1386719,0.3320313-0.1386719c0.1630859,0,0.3017578,0.0673828,0.4160156,0.203125
			s0.171875,0.3222656,0.171875,0.5595703c0,0.2929688-0.0996094,0.6279297-0.2998047,1.0048828
			c-0.1992188,0.3769531-0.5830078,0.9550781-1.1523438,1.734375c-0.5693359,0.7802734-1.2587891,1.6298828-2.0673828,2.5507813
			c-0.5585938,0.6347656-0.9716797,1.0341797-1.2421875,1.2001953c-0.2695313,0.1650391-0.5,0.2470703-0.6923828,0.2470703
			c-0.1142578,0-0.2158203-0.0429688-0.3017578-0.1308594c-0.0869141-0.0869141-0.1308594-0.1884766-0.1308594-0.3027344
			c0-0.1455078,0.0605469-0.2773438,0.1806641-0.3955078c0.1201172-0.1191406,0.25-0.1787109,0.390625-0.1787109
			c0.0742188,0,0.1347656,0.0166016,0.1826172,0.0507813c0.0292969,0.0185547,0.0615234,0.0712891,0.0966797,0.1582031
			s0.0673828,0.1455078,0.0976563,0.1757813c0.0185547,0.0185547,0.0400391,0.0273438,0.0664063,0.0273438
			c0.0224609,0,0.0605469-0.0185547,0.1162109-0.0556641c0.203125-0.1259766,0.4394531-0.3261719,0.7099609-0.6015625
			c0.3544922-0.3632813,0.6162109-0.6601563,0.7871094-0.890625l-0.3105469-3.5302734
			c-0.0517578-0.5830078-0.1298828-0.9375-0.2333984-1.0634766s-0.2763672-0.1894531-0.5205078-0.1894531
			c-0.078125,0-0.2167969,0.0107422-0.4160156,0.0332031l-0.0498047-0.2060547L227.8964844,98.4277344z"/>
	</g>
</g>
<g>
	<g>
		<path class="st4" d="M87.6079102,5.3256836h4.2431641v0.1655273l-4.6240234,4.7602539h1.9580078
			c0.4628906,0,0.7568359-0.0175781,0.8818359-0.0532227c0.1245117-0.0351563,0.2392578-0.1098633,0.3442383-0.2246094
			c0.1044922-0.1147461,0.2216797-0.3217773,0.3505859-0.621582h0.2475586l-0.581543,1.7983398h-4.3500977v-0.1918945
			l4.6240234-4.7597656h-1.9243164c-0.4057617,0-0.6503906,0.0107422-0.7353516,0.0327148
			c-0.1245117,0.0268555-0.2480469,0.0961914-0.3706055,0.2084961s-0.2485352,0.2988281-0.3774414,0.5585938h-0.2539063
			L87.6079102,5.3256836z"/>
	</g>
</g>
<g>
	<g>
		<g>
			<polygon points="186.716156,55.907547 187.2554779,57.8401413 195.6672516,52.8687363 185.8955994,52.9672318 
				186.434967,54.8999786 164.6604462,60.9765625 164.9416351,61.9841309 			"/>
		</g>
	</g>
</g>
<g>
	<g>
		<g>
			<polygon points="174.5975342,53.9602432 175.8855896,55.4986496 181.4999542,47.5016708 172.6378326,51.6196594 
				173.9259949,53.1581879 164.4653015,61.0792999 165.1368408,61.8813629 			"/>
		</g>
	</g>
</g>
<g>
	<g>
		<g>
			<polygon points="168.4371643,76.0577545 166.505661,76.6009369 171.4938049,85.0027924 171.3758392,75.2313538 
				169.4441681,75.7745819 165.3044434,61.0537567 164.2974396,61.3369446 			"/>
		</g>
	</g>
</g>
<g>
	<g>
		<path class="st0" d="M126.2148438,61.7128906v1.1904297c0.3457031-0.5424805,0.6484375-0.902832,0.9091797-1.0810547
			c0.2597656-0.1777344,0.5107422-0.2666016,0.7529297-0.2666016c0.2080078,0,0.3740234,0.0644531,0.4990234,0.1938477
			C128.5,61.878418,128.5625,62.0610352,128.5625,62.296875c0,0.2509766-0.0605469,0.4458008-0.1806641,0.5839844
			c-0.1210938,0.1386719-0.2675781,0.2080078-0.4384766,0.2080078c-0.1962891,0-0.3681641-0.0634766-0.5126953-0.190918
			s-0.2304688-0.1987305-0.2568359-0.2133789c-0.0371094-0.0224609-0.0800781-0.0336914-0.1279297-0.0336914
			c-0.1074219,0-0.2099609,0.0410156-0.3066406,0.1235352c-0.1523438,0.1274414-0.2675781,0.3085938-0.3457031,0.5444336
			c-0.1191406,0.3632813-0.1787109,0.7641602-0.1787109,1.2021484v1.2075195l0.0058594,0.3144531
			c0,0.2133789,0.0126953,0.3500977,0.0390625,0.409668c0.0449219,0.1010742,0.1103516,0.175293,0.1982422,0.222168
			c0.0869141,0.046875,0.234375,0.0756836,0.4433594,0.0869141v0.2021484h-2.8164063v-0.2021484
			c0.2265625-0.0185547,0.3798828-0.081543,0.4599609-0.1879883c0.0800781-0.1069336,0.1201172-0.3886719,0.1201172-0.8452148
			V62.824707c0-0.2993164-0.0146484-0.4902344-0.0449219-0.5727539c-0.0371094-0.1044922-0.0908203-0.1816406-0.1611328-0.2299805
			c-0.0712891-0.0488281-0.1953125-0.0825195-0.3740234-0.1010742v-0.2080078H126.2148438z"/>
	</g>
</g>
<g>
	<g>
		<path class="st4" d="M203.6777344,46.2866211h1.0439453l1.078125,1.8994141h-0.1757813l-1.5488281-1.222168l-1.2998047,1.222168
			h-0.1699219L203.6777344,46.2866211z"/>
	</g>
	<g>
		<path class="st4" d="M203.9550781,49.6118164v1.2163086c0.3515625-0.5546875,0.6591797-0.9228516,0.9248047-1.1044922
			c0.2646484-0.1816406,0.5195313-0.2724609,0.765625-0.2724609c0.2119141,0,0.3808594,0.065918,0.5078125,0.1977539
			s0.1904297,0.3183594,0.1904297,0.5595703c0,0.2563477-0.0615234,0.4550781-0.1845703,0.5966797
			s-0.2714844,0.2124023-0.4453125,0.2124023c-0.2001953,0-0.375-0.0654297-0.5224609-0.1953125
			s-0.234375-0.2026367-0.2607422-0.2177734c-0.0380859-0.0229492-0.0810547-0.034668-0.1308594-0.034668
			c-0.109375,0-0.2138672,0.0419922-0.3115234,0.1264648c-0.1552734,0.1298828-0.2724609,0.3154297-0.3525391,0.5561523
			c-0.1210938,0.3710938-0.1806641,0.7802734-0.1806641,1.2280273v1.2333984l0.0048828,0.3212891
			c0,0.2182617,0.0136719,0.3579102,0.0400391,0.4189453c0.0458984,0.1030273,0.1123047,0.1787109,0.2011719,0.2265625
			s0.2392578,0.0776367,0.4511719,0.0888672v0.206543h-2.8652344v-0.206543
			c0.2304688-0.019043,0.3867188-0.0830078,0.4677734-0.1923828c0.0810547-0.1088867,0.1220703-0.3964844,0.1220703-0.8632813
			v-2.9663086c0-0.3056641-0.0146484-0.5009766-0.0449219-0.5849609c-0.0380859-0.1069336-0.0927734-0.1855469-0.1650391-0.2353516
			c-0.0712891-0.0498047-0.1982422-0.0839844-0.3798828-0.1030273v-0.2124023H203.9550781z"/>
	</g>
</g>
<g>
	<g>
		<path class="st4" d="M177.2167969,74.4243164h1.0537109l1.0878906,1.8950195h-0.1777344l-1.5625-1.2192383l-1.3115234,1.2192383
			h-0.171875L177.2167969,74.4243164z"/>
	</g>
	<g>
		<path class="st4" d="M177.6533203,85.8066406c-0.4345703,0-0.8564453-0.1484375-1.265625-0.4462891
			c-0.4082031-0.2978516-0.7294922-0.7431641-0.9648438-1.3369141c-0.234375-0.5927734-0.3515625-1.3222656-0.3515625-2.1894531
			c0-1.3774414,0.2470703-2.409668,0.7412109-3.0966797s1.1083984-1.0302734,1.8408203-1.0302734
			c0.7373047,0,1.3515625,0.3452148,1.84375,1.0361328c0.4931641,0.6904297,0.7392578,1.7211914,0.7392578,3.0908203
			c0,0.8740234-0.1181641,1.6054688-0.3525391,2.1923828c-0.234375,0.5878906-0.5556641,1.0322266-0.9619141,1.3310547
			C178.515625,85.6572266,178.0927734,85.8066406,177.6533203,85.8066406z M176.7548828,81.5195313h1.7978516v-0.3779297
			c0-1.2939453-0.0839844-2.1274414-0.2519531-2.5014648s-0.3857422-0.5610352-0.6533203-0.5610352
			c-0.2705078,0-0.4873047,0.1928711-0.6494141,0.578125s-0.2431641,1.2133789-0.2431641,2.484375V81.5195313z
			 M176.7548828,81.9316406v0.3896484c0,1.4150391,0.0859375,2.2871094,0.2597656,2.6152344
			c0.1738281,0.3291016,0.390625,0.4931641,0.6503906,0.4931641c0.1640625,0,0.3173828-0.0800781,0.4609375-0.2382813
			s0.25-0.4199219,0.3203125-0.7841797c0.0712891-0.3642578,0.1064453-1.0595703,0.1064453-2.0859375v-0.3896484H176.7548828z"/>
	</g>
</g>
<g>
	<g>
		<path class="st4" d="M186.8212891,32.2636719h1.0751953l1.109375,1.9487305h-0.1816406l-1.59375-1.2539063l-1.3378906,1.2539063
			h-0.1748047L186.8212891,32.2636719z"/>
	</g>
	<g>
		<path class="st6" d="M187.6953125,38.2563477c0.7753906,0.0864258,1.3662109,0.3945313,1.7724609,0.9243164
			c0.4072266,0.5292969,0.6103516,1.1640625,0.6103516,1.9013672c0,0.3378906-0.0488281,0.6640625-0.1455078,0.9804688
			c-0.0976563,0.3154297-0.2255859,0.5927734-0.3828125,0.8300781c-0.1582031,0.2373047-0.3339844,0.4335938-0.5283203,0.5878906
			c-0.1953125,0.1552734-0.4091797,0.2744141-0.6425781,0.3564453c-0.1640625,0.0546875-0.390625,0.1005859-0.6835938,0.1357422
			v2.4365234h-0.6533203v-2.4365234c-0.5878906-0.0585938-1.0634766-0.2451172-1.4248047-0.5595703
			c-0.6347656-0.5449219-0.9521484-1.3046875-0.9521484-2.2783203c0-0.3847656,0.0488281-0.7294922,0.1455078-1.0361328
			c0.0976563-0.3056641,0.2285156-0.5742188,0.3945313-0.8066406c0.1650391-0.230957,0.3466797-0.4204102,0.5429688-0.5673828
			c0.1962891-0.1474609,0.40625-0.2583008,0.6279297-0.3330078c0.1591797-0.0546875,0.3818359-0.1000977,0.6660156-0.1352539
			v-2.8198242h0.6533203V38.2563477z M187.0419922,38.6157227c-0.2568359,0.0625-0.4541016,0.1489258-0.5898438,0.2587891
			c-0.2216797,0.1767578-0.4003906,0.4291992-0.5341797,0.7563477c-0.1347656,0.328125-0.2021484,0.7724609-0.2021484,1.3330078
			c0,0.6201172,0.0791016,1.1279297,0.2363281,1.5224609c0.1582031,0.3945313,0.3535156,0.6914063,0.5869141,0.8916016
			c0.109375,0.0976563,0.2763672,0.1806641,0.5029297,0.2470703V38.6157227z M187.6953125,43.625
			c0.2382813-0.0546875,0.4228516-0.1328125,0.5546875-0.2353516c0.2421875-0.1884766,0.4287109-0.4492188,0.5605469-0.7832031
			c0.1328125-0.3330078,0.1992188-0.7978516,0.1992188-1.3945313c0-0.5458984-0.0605469-1.0078125-0.1816406-1.3867188
			c-0.1201172-0.3789063-0.2880859-0.6699219-0.5019531-0.8740234c-0.140625-0.1333008-0.3496094-0.2451172-0.6308594-0.3354492
			V43.625z"/>
	</g>
</g>
<g>
	<g>
		<g>
			<polygon class="st4" points="8.2450104,157.1669464 6.8256111,155.7488251 1.9425011,164.2121582 10.4045334,159.3245392 
				8.9850235,157.9062958 76.7963562,90.0341644 76.0563507,89.2948151 			"/>
		</g>
	</g>
</g>
<g>
	<g>
		<g>
			<polygon class="st4" points="226.5614929,90.1876678 226.5614929,92.1941071 236,89.6667328 226.5614929,87.1350098 
				226.5614929,89.1416016 76.4264069,89.1416016 76.4264069,90.1876678 			"/>
		</g>
	</g>
</g>
<g>
	<g>
		<g>
			<polygon points="76.9495239,11.7681885 78.9559631,11.7681885 76.4285889,2.3296967 73.8968658,11.7681885 
				75.9034576,11.7681885 75.9034576,89.6645508 76.9495239,89.6645508 			"/>
		</g>
	</g>
</g>
<polygon class="st5" points="93.6957779,83.8792801 90.6613007,81.3762436 94.5428772,80.3832016 "/>
<g>
</g>
<g>
</g>
<g>
</g>
<g>
</g>
<g>
</g>
<g>
</g>
</svg>
